<?xml version="1.0" encoding="UTF-8" standalone="no"?>
<svg
   xmlns:dc="http://purl.org/dc/elements/1.1/"
   xmlns:cc="http://creativecommons.org/ns#"
   xmlns:rdf="http://www.w3.org/1999/02/22-rdf-syntax-ns#"
   xmlns:svg="http://www.w3.org/2000/svg"
   xmlns="http://www.w3.org/2000/svg"
   xmlns:sodipodi="http://sodipodi.sourceforge.net/DTD/sodipodi-0.dtd"
   xmlns:inkscape="http://www.inkscape.org/namespaces/inkscape"
   sodipodi:docname="logo.svg"
   inkscape:version="1.0 (4035a4fb49, 2020-05-01)"
   id="svg8"
   version="1.1"
   viewBox="0 0 83.5 90"
   height="90mm"
   width="83.5mm">
  <defs
     id="defs2">
    <rect
       id="rect1216"
       height="23.589258"
       width="98.533524"
       y="261.51169"
       x="12.448852" />
    <inkscape:path-effect
       only_selected="false"
       apply_with_weight="true"
       apply_no_weight="true"
       helper_size="0"
       steps="2"
       weight="33.333333"
       lpeversion="1"
       is_visible="true"
       id="path-effect326"
       effect="bspline" />
    <inkscape:path-effect
       only_selected="false"
       apply_with_weight="true"
       apply_no_weight="true"
       helper_size="0"
       steps="2"
       weight="33.333333"
       lpeversion="1"
       is_visible="true"
       id="path-effect322"
       effect="bspline" />
    <inkscape:path-effect
       only_selected="false"
       apply_with_weight="true"
       apply_no_weight="true"
       helper_size="0"
       steps="2"
       weight="33.333333"
       lpeversion="1"
       is_visible="true"
       id="path-effect318"
       effect="bspline" />
    <inkscape:path-effect
       only_selected="false"
       apply_with_weight="true"
       apply_no_weight="true"
       helper_size="0"
       steps="2"
       weight="33.333333"
       lpeversion="1"
       is_visible="true"
       id="path-effect314"
       effect="bspline" />
    <inkscape:path-effect
       only_selected="false"
       apply_with_weight="true"
       apply_no_weight="true"
       helper_size="0"
       steps="2"
       weight="33.333333"
       lpeversion="1"
       is_visible="true"
       id="path-effect310"
       effect="bspline" />
    <inkscape:path-effect
       only_selected="false"
       apply_with_weight="true"
       apply_no_weight="true"
       helper_size="0"
       steps="2"
       weight="33.333333"
       lpeversion="1"
       is_visible="true"
       id="path-effect306"
       effect="bspline" />
  </defs>
  <sodipodi:namedview
     inkscape:window-maximized="1"
     inkscape:window-y="0"
     inkscape:window-x="0"
     inkscape:window-height="1016"
     inkscape:window-width="1920"
     inkscape:guide-bbox="true"
     showguides="true"
     showgrid="false"
     inkscape:document-rotation="0"
     inkscape:current-layer="layer4"
     inkscape:document-units="mm"
     inkscape:cy="437.28169"
     inkscape:cx="496.29197"
     inkscape:zoom="0.5"
     inkscape:pageshadow="2"
     inkscape:pageopacity="0.0"
     borderopacity="1.0"
     bordercolor="#666666"
     pagecolor="#ffffff"
     id="base" />
  <metadata
     id="metadata5">
    <rdf:RDF>
      <cc:Work
         rdf:about="">
        <dc:format>image/svg+xml</dc:format>
        <dc:type
           rdf:resource="http://purl.org/dc/dcmitype/StillImage" />
        <dc:title></dc:title>
      </cc:Work>
    </rdf:RDF>
  </metadata>
  <g
     style="display:inline"
     inkscape:label="pozadi"
     id="layer2"
     inkscape:groupmode="layer" />
  <g
     style="display:inline"
     inkscape:label="stin devitky"
     id="layer3"
     inkscape:groupmode="layer" />
  <g
     style="display:inline"
     id="layer1"
     inkscape:groupmode="layer"
     inkscape:label="devitka" />
  <g
     style="display:inline"
     inkscape:label="bezec"
     id="layer4"
     inkscape:groupmode="layer">
    <g
       transform="translate(-42.000019,-197.99968)"
       id="g1235">
      <path
         id="path83-3-1"
         style="display:inline;opacity:1;fill:#2f1832;fill-opacity:1;stroke-width:1.52993"
         d="m 337.20703,762.26172 v 265.00978 h 54.65039 a 113.38583,113.38583 0 0 0 0.1582,-0.4414 h 22.41211 v -0.168 a 26.456693,26.456693 0 0 0 2.97071,0.168 26.456693,26.456693 0 0 0 26.45508,-26.4571 26.456693,26.456693 0 0 0 -26.45508,-26.45698 26.456693,26.456693 0 0 0 -2.97071,0.16796 v -0.16796 h -6.66406 v -0.0566 h -4.58789 a 26.456693,26.456693 0 0 1 -2.28125,0.0996 26.456693,26.456693 0 0 1 -26.45703,-26.45703 26.456693,26.456693 0 0 1 26.45703,-26.45703 26.456693,26.456693 0 0 1 0.0254,0 l 1.24219,-0.11133 v -0.002 l 5.6543,-0.51562 a 26.456693,26.456693 0 0 0 20.91797,-25.86914 26.456693,26.456693 0 0 0 -26.45704,-26.45704 h -4.0332 a 113.38583,113.38583 0 0 0 0,-0.002 h -16.9668 a 26.456693,26.456693 0 0 1 -2.28125,0.0996 26.456693,26.456693 0 0 1 -26.45703,-26.45703 26.456693,26.456693 0 0 1 26.45703,-26.45703 26.456693,26.456693 0 0 1 0.0274,0 v -0.0977 h 2 45.95703 20.65234 a 26.456693,26.456693 0 0 0 26.45508,-26.45703 26.456693,26.456693 0 0 0 -26.45508,-26.45703 z"
         transform="scale(0.26458333)" />
      <path
         id="path83-3"
         style="display:inline;opacity:1;fill:#b5ca01;fill-opacity:1;stroke-width:1.52993"
         d="m 272.12695,748.3457 a 113.38583,113.38583 0 0 0 -113.38672,113.38672 113.38583,113.38583 0 0 0 113.38672,113.38477 113.38583,113.38583 0 0 0 41.52149,-7.87891 v 9.96289 a 41.574798,41.574798 0 0 1 -20.73438,33.92183 41.574798,41.574798 0 0 1 -41.57617,0 41.574798,41.574798 0 0 1 -20.78711,-36.00581 h -71.81055 a 113.38583,113.38583 0 0 0 56.69336,98.19531 113.38583,113.38583 0 0 0 113.38477,0 113.38583,113.38583 0 0 0 50.20898,-60.3984 h 22.41211 v -0.168 a 26.456693,26.456693 0 0 0 2.97071,0.168 26.456693,26.456693 0 0 0 26.45507,-26.45707 A 26.456693,26.456693 0 0 0 404.41016,960 a 26.456693,26.456693 0 0 0 -2.97071,0.16797 V 960 h -6.66406 v -0.0566 h -4.58789 a 26.456693,26.456693 0 0 1 -2.28125,0.0996 26.456693,26.456693 0 0 1 -26.45703,-26.45703 26.456693,26.456693 0 0 1 26.45703,-26.45703 26.456693,26.456693 0 0 1 0.0273,0 v -0.008 l 0.83399,-0.0898 h 0.0859 l 5.92187,-0.50977 v -0.01 a 26.456693,26.456693 0 0 0 20.97266,-25.88086 26.456693,26.456693 0 0 0 -26.45703,-26.45703 h -4.03321 a 113.38583,113.38583 0 0 0 0,-0.002 h -16.96679 a 26.456693,26.456693 0 0 1 -2.28125,0.0996 26.456693,26.456693 0 0 1 -26.45704,-26.45703 26.456693,26.456693 0 0 1 26.45704,-26.45703 26.456693,26.456693 0 0 1 0.0273,0 v -0.0977 h 2 45.95703 20.65234 a 26.456693,26.456693 0 0 0 26.45508,-26.45704 26.456693,26.456693 0 0 0 -26.45508,-26.45703 z"
         transform="scale(0.26458333)" />
      <g
         id="g1176">
        <path
           sodipodi:nodetypes="cc"
           inkscape:original-d="m 69.53523,224.88898 7.953207,6.10171"
           inkscape:path-effect="#path-effect306"
           id="path304"
           d="m 69.53523,224.88898 c 0,0 7.953207,6.10171 7.953207,6.10171"
           style="fill:none;stroke:#ffffff;stroke-width:4.2;stroke-linecap:round;stroke-linejoin:round;stroke-miterlimit:4;stroke-dasharray:none;stroke-opacity:1" />
        <path
           sodipodi:nodetypes="cc"
           inkscape:original-d="M 77.488437,230.99069 63.133572,241.76524"
           inkscape:path-effect="#path-effect310"
           id="path308"
           d="m 77.488437,230.99069 c 0,0 -14.354865,10.77455 -14.354865,10.77455"
           style="fill:none;stroke:#ffffff;stroke-width:4.2;stroke-linecap:round;stroke-linejoin:round;stroke-miterlimit:4;stroke-dasharray:none;stroke-opacity:1" />
        <path
           sodipodi:nodetypes="cc"
           inkscape:original-d="m 63.133572,241.76524 5.120171,4.14488"
           inkscape:path-effect="#path-effect314"
           id="path312"
           d="m 63.133572,241.76524 c 0,0 5.120171,4.14488 5.120171,4.14488"
           style="fill:none;stroke:#ffffff;stroke-width:4.2;stroke-linecap:round;stroke-linejoin:round;stroke-miterlimit:4;stroke-dasharray:none;stroke-opacity:1" />
        <path
           inkscape:original-d="m 69.4183,236.88093 10.320205,8.54834"
           inkscape:path-effect="#path-effect318"
           id="path316"
           d="m 69.4183,236.88093 c 0,0 10.320205,8.54834 10.320205,8.54834"
           style="fill:none;stroke:#ffffff;stroke-width:4.2;stroke-linecap:round;stroke-linejoin:round;stroke-miterlimit:4;stroke-dasharray:none;stroke-opacity:1" />
        <path
           sodipodi:nodetypes="cc"
           inkscape:original-d="m 62.573954,228.29621 8.697794,7.02"
           inkscape:path-effect="#path-effect322"
           id="path320"
           d="m 62.573954,228.29621 c 0,0 8.697794,7.02 8.697794,7.02"
           style="fill:none;stroke:#ffffff;stroke-width:4.2;stroke-linecap:round;stroke-linejoin:round;stroke-miterlimit:4;stroke-dasharray:none;stroke-opacity:1" />
        <path
           inkscape:original-d="M 69.53523,224.88898 69.4183,236.88093"
           inkscape:path-effect="#path-effect326"
           id="path324"
           d="m 69.53523,224.88898 c 0,0 -0.11693,11.99195 -0.11693,11.99195"
           style="fill:none;stroke:#ffffff;stroke-width:4.2;stroke-linecap:round;stroke-linejoin:round;stroke-miterlimit:4;stroke-dasharray:none;stroke-opacity:1" />
        <circle
           r="8"
           cy="216.36198"
           cx="69.308174"
           id="path1151"
           style="opacity:1;fill:none;stroke:#ffffff;stroke-width:4.2;stroke-linecap:round;stroke-linejoin:round;stroke-miterlimit:4;stroke-dasharray:none;stroke-opacity:1" />
      </g>
    </g>
  </g>
  <g
     inkscape:label="Text"
     id="layer5"
     inkscape:groupmode="layer" />
</svg>
